<svg xmlns="http://www.w3.org/2000/svg" viewBox="301 0 136.4 110.3"><g fill="#21c16c"><path d="m422.4 0h-106.4c-8.3 0-15 6.7-15 15v95.3l20.7-20.5h100.8c8.3 0 15-6.7 15-15v-59.8c-.1-8.3-6.8-15-15.1-15zm-89.5 67.2c0 2.2-1.8 4-4 4s-4-1.8-4-4v-42.5c0-2.2 1.8-4 4-4s4 1.8 4 4zm18.6 0c0 2.2-1.8 4-4 4s-4-1.8-4-4v-28.1c0-2.2 1.8-4 4-4s4 1.8 4 4zm.5-40.9c0 2.4-1.9 4.3-4.3 4.3h-.4c-2.4 0-4.3-1.9-4.3-4.3v-.3c0-2.4 1.9-4.3 4.3-4.3h.4c2.4 0 4.3 1.9 4.3 4.3zm28.2 43.9c-1.8.9-3.8 1.3-5.9 1.3-6.9 0-10.6-3.3-10.6-9.6v-19.3h-3.6c-1.2 0-2.2-.9-2.2-2.1v-.1c0-.7.4-1.4 1-1.9l8.9-8.7c.5-.5 1.1-.8 1.8-.9 1.2 0 2.3 1 2.3 2.2v.1 4.2h6.4c2 0 3.6 1.6 3.6 3.6s-1.6 3.6-3.6 3.6h-6.4v18.8c0 2.7 1.4 2.9 3.3 2.9.8 0 1.6-.1 2.3-.3.5-.2 1.1-.2 1.6-.3 1.8 0 3.3 1.5 3.4 3.4-.2 1.3-1.1 2.6-2.3 3.1zm24.5-6.2c2.9.1 5.8-.6 8.4-1.9.5-.3 1.1-.4 1.6-.4 2 0 3.6 1.5 3.6 3.5v.1c-.1 1.4-.9 2.7-2.2 3.3-2.8 1.6-5.8 3-12 3-11.2 0-18-6.9-18-18.4 0-13.5 9-18.4 16.6-18.4 11.4 0 16.6 9.1 16.6 17.5.1 2.1-1.6 3.9-3.7 4-.1 0-.2 0-.3 0h-21c1.1 5 4.7 7.7 10.4 7.7z"/><path d="m402.9 41.9c-4.4-.1-8.1 3.2-8.5 7.6h17.1c-.5-4.4-4.2-7.7-8.6-7.6z"/></g></svg>
